<svg width="168" height="42" viewBox="0 0 168 42" fill="none" xmlns="http://www.w3.org/2000/svg">
<g clip-path="url(#clip0_20791_12158)">
<path d="M55.8778 14.3528C55.8223 14.7004 55.517 15.0512 55.1409 15.0604L47.2321 15.7158C46.8559 15.7558 46.5167 16.0789 46.4304 16.4235C46.3194 17.0851 46.0018 19.6666 46.0172 20.2604C46.0234 20.5743 46.2485 20.7558 46.563 20.7497C49.5785 20.6789 50.4202 20.3466 53.4389 20.2758C53.7842 20.2666 54.074 20.5435 54.0833 20.8881V20.9189V24.9989C54.0617 25.3774 53.7564 25.7589 53.408 25.7681L46.2146 26.0604C45.8384 26.0697 45.601 26.7035 45.6102 27.0481L45.4746 33.3897C45.4499 33.7343 45.1755 34.0543 44.8301 34.0943L39.7179 34.6512H39.6563C39.3109 34.6604 39.0828 34.3835 39.0766 34.0697V34.0389L38.8669 10.2912C38.8577 9.91583 39.1352 9.59583 39.5113 9.5866H39.5422L55.702 9.49122C56.0474 9.48199 56.3372 9.72814 56.3434 10.0728C56.365 11.0143 55.9795 13.282 55.8778 14.3497V14.3528Z" fill="#161E26"/>
<path d="M73.8937 33.1374C73.8999 33.4205 73.6563 33.6758 73.3726 33.7158L68.2234 34.0882H68.1926C67.9089 34.0943 67.7147 33.8789 67.6777 33.6297L67.6068 31.9374C66.654 32.9005 65.4114 33.5251 63.6817 33.5651C58.9672 33.6758 55.7759 30.2666 55.6464 24.7466C55.5262 19.5405 59.183 16.0051 63.3641 15.9066C64.8102 15.8728 66.1422 16.3128 67.2553 16.9466L67.2059 16.1312C67.1998 15.8481 67.4156 15.6235 67.6962 15.5866L73.6008 15.3558C73.8845 15.3497 74.1096 15.5651 74.1157 15.8451L73.8906 33.1405L73.8937 33.1374ZM67.4125 23.6235C67.1381 22.6266 66.2686 21.8297 65.0753 21.8574C63.5676 21.8912 62.5593 23.1405 62.5994 24.8974C62.6395 26.6235 63.8266 27.6605 65.1802 27.6297C66.1545 27.6081 67.2028 26.7035 67.4464 25.0974L67.4125 23.6235Z" fill="#161E26"/>
<path d="M88.8603 20.9898C88.8665 21.2421 88.6815 21.4329 88.4626 21.439L86.1994 21.4606C85.9466 21.4667 85.7338 21.6606 85.7369 21.9098L85.3453 33.3713C85.3207 33.6236 85.1356 33.7836 84.9136 33.7898H84.8828L79.3759 33.5744C79.157 33.5806 78.9628 33.3652 78.9566 33.1436V33.1129L78.9474 22.0052V21.9744C78.9412 21.7559 78.7161 21.5713 78.4972 21.5467L76.6102 21.5898C76.3573 21.5959 76.1662 21.3806 76.1292 21.1621L75.7252 16.0267V15.9959C75.7191 15.7775 75.9041 15.5836 76.123 15.5775L78.4478 15.5559C78.7007 15.5498 78.8826 15.359 78.8764 15.1067L78.8672 9.26979C78.861 9.01748 79.046 8.82671 79.2958 8.82056L85.6444 8.7344C85.8633 8.72825 86.0576 8.91286 86.0637 9.16517L85.888 15.0359V15.0667C85.8941 15.319 86.0884 15.5006 86.3073 15.4975L88.256 15.4821C88.5088 15.4759 88.7 15.6606 88.7062 15.9098L88.8573 20.9898H88.8603Z" fill="#161E26"/>
<path d="M107.7 13.1467C107.644 13.4944 107.339 13.8452 106.963 13.8544L99.0541 14.5098C98.6779 14.5498 98.3387 14.8729 98.2524 15.2175C98.1414 15.879 97.8238 18.4605 97.8392 19.0544C97.8454 19.3682 98.0705 19.5498 98.385 19.5436C101.401 19.4729 102.242 19.1405 105.261 19.0698C105.606 19.0605 105.896 19.3375 105.905 19.6821V19.7129V23.7929C105.884 24.1713 105.578 24.5529 105.23 24.5621L98.0366 24.8544C97.6604 24.8636 97.423 25.4975 97.4322 25.8421L97.2966 32.1836C97.2719 32.5282 96.9975 32.8482 96.6521 32.8882L91.54 33.4452H91.4783C91.1329 33.4544 90.9048 33.1775 90.8986 32.8636V32.8329L90.6889 9.08516C90.6797 8.70978 90.9572 8.38978 91.3334 8.38055H91.3642L107.524 8.28516C107.869 8.27593 108.159 8.52209 108.165 8.8667C108.187 9.80824 107.802 12.0759 107.7 13.1436V13.1467Z" fill="#161E26"/>
<path d="M120.15 14.4236C120.166 15.0821 120.042 19.1959 120.027 19.9498C120.03 20.1067 119.907 20.2021 119.719 20.239C116.358 20.4113 114.995 22.5775 115.115 26.4328C115.115 26.4328 115.205 28.9098 115.279 32.1098C115.285 32.3928 115.069 32.6175 114.788 32.6236L109.448 32.8728H109.417C109.164 32.879 108.942 32.6975 108.936 32.4144L107.971 15.399V15.3682C107.965 15.1159 108.15 14.9251 108.4 14.919H108.431L113.842 15.0421C114.252 15.0328 114.347 15.1251 114.354 15.4698L114.372 16.2236C114.372 16.2851 114.372 16.3498 114.406 16.3498C114.406 16.3498 114.437 16.319 114.468 16.2544C115.531 14.6913 117.594 14.1405 119.009 14.1098C119.355 14.1005 119.638 14.1251 119.891 14.1528C119.987 14.1805 120.144 14.2421 120.147 14.399V14.4298L120.15 14.4236Z" fill="#161E26"/>
<path d="M140.192 32.4728C140.167 32.7559 139.955 33.0112 139.671 33.0174H139.64L134.105 32.9589C133.822 32.9651 133.566 32.722 133.56 32.4389L133.541 31.6851C132.733 32.1128 131.765 32.4174 130.698 32.442C124.288 32.5928 122.139 28.1528 121.976 21.1282C121.911 18.3989 122.21 16.322 122.376 15.3774C122.404 15.2205 122.558 15.122 122.716 15.1189H122.746L129.231 15.4697C129.388 15.4666 129.548 15.5559 129.551 15.7435V15.8051C129.36 17.0328 129.04 20.8051 129.095 23.0635C129.169 26.2635 130.014 27.4051 131.334 27.3743C132.653 27.3435 133.418 26.4789 133.399 24.282L133.177 14.7805C133.202 14.4666 133.415 14.2112 133.698 14.202L139.85 13.7435C139.85 13.7435 139.85 13.7128 139.881 13.7128C140.133 13.7066 140.359 13.922 140.365 14.2051L140.195 32.4728H140.192Z" fill="#161E26"/>
<path d="M150.016 31.679C150.022 31.9313 149.806 32.122 149.587 32.1282H149.556L143.864 32.1036C143.581 32.1097 143.386 31.8944 143.349 31.6451L142.582 16.2574C142.576 16.0051 142.761 15.8144 143.01 15.8082L149.581 15.7497C149.834 15.7436 150.059 15.959 150.062 16.2082L150.016 31.679ZM147 14.3344C145.021 14.3805 143.377 12.7251 143.328 10.6236C143.279 8.55282 144.842 6.82359 146.821 6.77743C148.832 6.73128 150.475 8.38666 150.524 10.4574C150.574 12.559 149.01 14.2882 147 14.3374V14.3344Z" fill="#161E26"/>
<path d="M165.667 19.2021C165.673 19.4544 165.488 19.6451 165.269 19.6513L163.006 19.6728C162.753 19.679 162.54 19.8728 162.543 20.1221L162.152 31.5836C162.127 31.8359 161.942 31.9959 161.72 32.0021H161.689L156.182 31.7867C155.963 31.7928 155.769 31.5775 155.763 31.3559V31.3251L155.754 20.2175V20.1867C155.748 19.9682 155.522 19.7836 155.304 19.759L153.417 19.8021C153.164 19.8082 152.973 19.5928 152.936 19.3744L152.532 14.239V14.2082C152.525 13.9898 152.71 13.7959 152.929 13.7898L155.254 13.7682C155.507 13.7621 155.689 13.5713 155.683 13.319L155.674 7.48207C155.667 7.22976 155.852 7.03899 156.102 7.03284L162.451 6.94668C162.67 6.94053 162.864 7.12514 162.87 7.37745L162.694 13.2482V13.279C162.701 13.5313 162.895 13.7128 163.114 13.7098L165.062 13.6944C165.315 13.6882 165.506 13.8728 165.513 14.1221L165.664 19.2021H165.667Z" fill="#161E26"/>
<path d="M30.6867 16.4913C28.0905 13.0851 24.0975 11.1713 20.2896 11.3651C19.6452 11.3959 19.0038 11.4913 18.3748 11.6482C18.233 11.6851 18.1128 11.762 18.0233 11.8697C17.8877 12.0297 17.8291 12.2482 17.8846 12.4667C17.9771 12.8267 18.344 13.0451 18.7048 12.9559C22.5158 11.9959 26.8972 13.7467 29.6106 17.3067C32.3239 20.8667 32.8419 25.5497 30.8994 28.9559C30.7144 29.279 30.8285 29.6913 31.1523 29.8759C31.2571 29.9343 31.3712 29.9651 31.4853 29.9651C31.7196 29.9651 31.9478 29.842 32.0742 29.6236C34.2788 25.7528 33.7238 20.4759 30.6867 16.4913Z" fill="#FAF7EF"/>
<path d="M18.748 22.1805C17.0737 20.9744 15.0048 20.5251 12.9174 20.9221C12.4549 21.0113 12.0016 21.1375 11.5638 21.3067C11.277 22.0482 10.9379 22.7651 10.5309 23.4482C10.5185 23.4759 10.5 23.5005 10.4815 23.5282C10.5031 23.5251 10.5247 23.5251 10.5463 23.5251C10.833 23.5098 11.1198 23.6728 11.2431 23.9651L12.6368 27.2975C12.7694 27.6144 12.5196 27.959 12.1774 27.9313H12.1589L11.2863 27.8636L10.4569 27.799L8.56676 27.6544C8.08884 27.6175 7.77742 27.1344 7.95009 26.6882C7.99017 26.5867 8.03026 26.4882 8.07342 26.3898C8.06417 26.399 8.05492 26.4051 8.04567 26.4144C7.503 26.8759 6.90792 27.2882 6.27275 27.6298C6.11241 28.4698 6.08466 29.3344 6.19566 30.1928C6.47316 32.2944 7.54617 34.1159 9.21735 35.3251C10.722 36.4113 12.5474 36.8821 14.4159 36.679C14.6256 36.6575 14.8383 36.6236 15.048 36.5836C16.0871 36.3867 17.0676 35.9928 17.9432 35.4267C18.1807 35.2728 18.4088 35.1098 18.6308 34.9313C18.8497 34.759 19.0594 34.5744 19.2598 34.3744C19.6113 34.0359 19.932 33.6636 20.2249 33.2605C21.4953 31.5128 22.0441 29.399 21.7697 27.3128C21.4953 25.2113 20.4223 23.3898 18.748 22.1805ZM12.4364 23.2851C12.2637 22.8728 12.5042 22.4082 12.942 22.3098C13.1887 22.2544 13.4385 22.2113 13.6913 22.1836C14.6502 22.079 15.6246 22.1898 16.5372 22.5282C16.9781 22.6944 17.1416 23.2359 16.8641 23.6205L14.6256 26.7098C14.4128 26.999 13.9657 26.9467 13.827 26.6175L12.4364 23.2851ZM8.85968 33.1282C8.15668 32.2544 7.70034 31.1898 7.54926 30.0175C7.53692 29.9405 7.52767 29.8605 7.5215 29.7836C7.47834 29.3375 7.84526 28.9621 8.29234 28.9959L11.2616 29.2267L11.8999 29.2759C12.0602 29.2882 12.1866 29.3744 12.2575 29.4944C12.347 29.6421 12.3531 29.839 12.236 30.0021L12.0078 30.319L9.99744 33.0913C9.71994 33.4728 9.15568 33.4944 8.85968 33.1282ZM15.3347 33.7467L15.5321 34.2205C15.7016 34.6328 15.4611 35.0975 15.0264 35.1959C14.7766 35.2544 14.5269 35.2975 14.274 35.3221C13.3151 35.4267 12.3408 35.319 11.4312 34.9805C10.9872 34.8144 10.8238 34.2698 11.1013 33.8882L12.8927 31.4205L13.3059 30.8482L13.3429 30.799C13.5248 30.5467 13.8794 30.5498 14.0644 30.7682C14.0952 30.8051 14.1199 30.8451 14.1384 30.8913L14.7427 32.3375L15.3347 33.7467ZM20.0153 30.8205C19.7963 31.3959 19.4972 31.9467 19.1211 32.4636C18.7727 32.9436 18.3749 33.3713 17.9402 33.7375C17.9062 33.7651 17.8692 33.7959 17.8353 33.8236C17.4653 34.1251 16.9072 33.9805 16.7222 33.5405L16.3861 32.7344L15.3286 30.2082C15.196 29.8913 15.4457 29.5467 15.7911 29.5744L19.3986 29.8513C19.8765 29.8882 20.1879 30.3744 20.0153 30.8205ZM19.6761 28.5098L16.0655 28.2328C15.7078 28.2051 15.5197 27.7959 15.7294 27.5067L17.971 24.4144C18.2454 24.0328 18.8127 24.0144 19.1087 24.3805C19.8118 25.2513 20.265 26.3159 20.4192 27.4882C20.4284 27.5682 20.4377 27.6451 20.4438 27.7251C20.487 28.1682 20.1201 28.5436 19.6761 28.5098Z" fill="#FAF7EF"/>
<path d="M25.4358 11.4635C24.3906 10.9989 23.2836 10.6697 22.1521 10.4974C21.6587 10.4235 21.1623 10.3774 20.6659 10.3589C19.7871 10.3343 18.9084 10.405 18.0419 10.5774C17.8569 10.6143 17.6719 10.5927 17.5085 10.525C17.0861 10.3558 16.6452 10.242 16.2012 10.1958C15.9329 10.1681 15.6678 10.165 15.4026 10.1897C14.8137 10.2266 14.2803 10.405 13.8208 10.6881C13.5526 10.8512 13.3121 11.0512 13.0993 11.2789C13.0993 11.3281 13.0993 11.3774 13.0962 11.4235C13.0932 11.6697 13.0747 11.9097 13.0716 12.1189C13.013 14.0143 12.8742 15.9989 12.5073 17.922C13.8147 17.6574 15.2083 17.6327 16.6452 17.8974C24.6249 19.4574 27.3999 28.8174 22.7903 35.1097C22.7502 35.1681 22.7071 35.2235 22.667 35.2789C22.8366 35.3004 23.0061 35.3158 23.1757 35.3281C24.4553 35.4143 25.738 35.3066 26.9436 34.9497C27.1471 34.8974 27.3506 34.9189 27.5325 34.9897C28.2108 35.2635 28.9416 35.3866 29.6384 35.3281C31.436 35.2143 32.8544 33.6943 32.9993 31.9312C33.0579 31.4758 32.9931 30.9989 33.0085 30.5435C36.6161 23.4327 32.5152 14.5589 25.4358 11.4635ZM32.0743 29.6235C31.9479 29.842 31.7197 29.965 31.4854 29.965C31.3713 29.965 31.2572 29.9343 31.1524 29.8758C30.8286 29.6912 30.7145 29.2789 30.8995 28.9558C32.842 25.5497 32.324 20.8666 29.6107 17.3066C26.8973 13.7466 22.5159 11.9958 18.7049 12.9558C18.3441 13.045 17.9772 12.8266 17.8847 12.4666C17.8292 12.2481 17.8878 12.0297 18.0234 11.8697C18.1129 11.762 18.2331 11.685 18.3749 11.6481C19.004 11.4912 19.6453 11.3958 20.2897 11.365C24.0977 11.1712 28.0906 13.085 30.6868 16.4912C33.7239 20.4758 34.2789 25.7527 32.0743 29.6235Z" fill="#F2CA4A"/>
<path d="M12.7292 19.7866C12.4887 19.8328 12.2544 19.8851 12.0231 19.9497C11.8875 20.4081 11.7364 20.8635 11.5637 21.3066C12.0015 21.1374 12.4548 21.0112 12.9173 20.922C15.0047 20.5251 17.0737 20.9743 18.7479 22.1805C20.4222 23.3897 21.4952 25.2112 21.7696 27.3128C22.044 29.3989 21.4952 31.5128 20.2248 33.2605C19.9319 33.6635 19.6113 34.0358 19.2598 34.3743C19.0593 34.5743 18.8497 34.7589 18.6308 34.9312C18.4087 35.1097 18.1806 35.2728 17.9432 35.4266C17.0675 35.9928 16.087 36.3866 15.0479 36.5835C14.8382 36.6235 14.6255 36.6574 14.4158 36.6789C12.5473 36.882 10.7219 36.4112 9.21727 35.3251C7.54609 34.1158 6.47309 32.2943 6.19558 30.1928C6.08458 29.3343 6.11233 28.4697 6.27267 27.6297C5.83175 27.8697 5.36925 28.0758 4.89441 28.2358C4.50282 31.242 5.51725 34.3897 8.3601 36.5097C11.684 38.8789 15.902 38.2358 18.899 35.882C19.1272 35.7035 19.3461 35.5158 19.5558 35.322C19.7623 35.1281 19.9628 34.9251 20.157 34.7158C20.4314 34.4143 20.6873 34.0974 20.9248 33.7651C25.596 27.3589 20.8939 18.3312 12.7292 19.7866Z" fill="#F2CA4A"/>
<path d="M20.4437 27.725C20.4375 27.645 20.4283 27.5681 20.419 27.4881C20.2648 26.3158 19.8116 25.2512 19.1086 24.3804C18.8126 24.0142 18.2452 24.0327 17.9708 24.4142L15.7292 27.5065C15.5196 27.7958 15.7076 28.205 16.0653 28.2327L19.6759 28.5096C20.1199 28.5435 20.4868 28.1681 20.4437 27.725Z" fill="#F2CA4A"/>
<path d="M16.7221 33.5405C16.9071 33.9805 17.4651 34.1251 17.8351 33.8236C17.8691 33.7959 17.9061 33.7651 17.94 33.7374C18.3747 33.3712 18.7725 32.9436 19.1209 32.4636C19.4971 31.9466 19.7962 31.3959 20.0151 30.8205C20.1877 30.3743 19.8763 29.8882 19.3984 29.8512L15.7909 29.5743C15.4455 29.5466 15.1958 29.8912 15.3284 30.2082L16.386 32.7343L16.7221 33.5405Z" fill="#F2CA4A"/>
<path d="M16.5373 22.5282C15.6246 22.1897 14.6502 22.0789 13.6913 22.1836C13.4385 22.2113 13.1887 22.2543 12.9421 22.3097C12.5042 22.4082 12.2637 22.8728 12.4364 23.2851L13.827 26.6174C13.9657 26.9466 14.4128 26.999 14.6256 26.7097L16.8641 23.6205C17.1416 23.2359 16.9782 22.6943 16.5373 22.5282Z" fill="#F2CA4A"/>
<path d="M14.7428 32.3373L14.1384 30.8912C14.1199 30.845 14.0953 30.805 14.0644 30.7681C13.8794 30.5497 13.5248 30.5466 13.3429 30.7989L13.3059 30.8481L12.8927 31.4204L11.1013 33.8881C10.8238 34.2697 10.9872 34.8143 11.4312 34.9804C12.3408 35.3189 13.3152 35.4266 14.2741 35.322C14.5269 35.2973 14.7767 35.2543 15.0264 35.1958C15.4612 35.0973 15.7017 34.6327 15.5321 34.2204L15.3348 33.7466L14.7428 32.3373Z" fill="#F2CA4A"/>
<path d="M8.8597 33.1281C9.1557 33.4942 9.71995 33.4727 9.99746 33.0912L12.0078 30.3189L12.236 30.0019C12.3531 29.8389 12.347 29.6419 12.2576 29.4942C12.1866 29.3742 12.0602 29.2881 11.8999 29.2758L11.2616 29.2265L8.29236 28.9958C7.84528 28.9619 7.47836 29.3373 7.52152 29.7835C7.52769 29.8604 7.53694 29.9404 7.54927 30.0173C7.70036 31.1896 8.15669 32.2542 8.8597 33.1281Z" fill="#F2CA4A"/>
<path d="M8.5667 27.6543L10.4568 27.7989L11.2862 27.8635L12.1588 27.9312H12.1773C12.5196 27.9589 12.7693 27.6143 12.6367 27.2974L11.243 23.965C11.1197 23.6727 10.833 23.5097 10.5462 23.525C10.5246 23.525 10.503 23.525 10.4815 23.5281C10.318 23.805 10.1392 24.0758 9.95112 24.3404C9.76921 24.5958 9.57804 24.842 9.37454 25.082C8.98295 25.5435 8.55128 25.9835 8.07336 26.3897C8.03019 26.4881 7.99011 26.5866 7.95003 26.6881C7.77736 27.1343 8.08878 27.6174 8.5667 27.6543Z" fill="#F2CA4A"/>
<path d="M18.3997 6.86044C17.4223 7.12505 16.4171 7.63274 15.5322 8.26044C16.3 8.22659 17.1047 8.34351 17.9157 8.63582H17.9187C19.2569 8.27274 20.666 8.17121 22.0474 8.26044C22.2724 8.27582 22.4944 8.30044 22.7164 8.32505C23.2437 7.92813 23.7278 7.4789 24.1625 6.98351C22.2879 6.41121 20.2775 6.32813 18.3997 6.86044Z" fill="#71A73A"/>
<path d="M11.2988 11.8112C10.9843 11.9281 10.679 12.0481 10.3861 12.1712C3.19879 15.1896 2.81646 20.1465 3.25121 27.3465C3.33138 27.3373 3.40846 27.3219 3.48554 27.3065C3.76305 27.2573 4.03438 27.1896 4.29955 27.1065C4.61097 27.0112 4.91314 26.8973 5.20606 26.7588C5.79498 26.4912 6.35306 26.1465 6.87107 25.7435C7.68199 25.1188 8.39733 24.3527 8.99241 23.5065C9.22058 23.1835 9.43333 22.8481 9.62142 22.5035C9.67075 22.4235 9.71392 22.3404 9.75708 22.2604C9.92975 21.9312 10.087 21.5988 10.2258 21.2604C10.2597 21.1773 10.2936 21.0942 10.3244 21.0112C10.3984 20.8388 10.4663 20.6604 10.5248 20.485C10.6605 20.1158 10.7777 19.7435 10.8825 19.365C10.9843 19.0112 11.0737 18.6512 11.1508 18.2881C11.3203 17.5188 11.4468 16.7342 11.5393 15.9465C11.6934 14.6573 11.7674 13.3527 11.8137 12.0758L11.8291 11.6173C11.7613 11.6388 11.6934 11.6635 11.6256 11.6881C11.5146 11.725 11.4036 11.765 11.2988 11.8112Z" fill="#71A73A"/>
<path d="M36.5698 22.6727C35.8761 16.1312 30.844 10.2635 24.48 8.65736C24.9518 8.16197 25.3773 7.62044 25.738 7.03582C25.9292 6.7312 25.8336 6.32813 25.5283 6.14044C23.3176 4.66659 20.4408 4.30967 17.8816 5.02044C16.0069 5.53736 14.3728 6.62659 12.976 7.94967C12.6492 8.2512 12.2884 8.64813 12.0572 9.07582C11.4405 8.45121 10.719 7.89736 9.92349 7.44197C9.18965 7.00197 8.17831 7.46351 8.03956 8.31274C7.91623 9.00197 8.37256 9.66351 9.06324 9.78659C9.64291 9.89428 10.2257 10.0697 10.7899 10.3158C9.3284 10.5927 7.92548 11.0758 6.59964 11.802C0.469929 15.1989 0.479179 22.1435 2.03936 28.122C2.09177 28.4389 2.36311 28.6851 2.69611 28.6666C2.90886 28.6574 3.12161 28.6358 3.33128 28.6081C3.21103 30.5804 3.62728 32.6204 4.71571 34.5404C8.25848 40.605 16.528 41.242 21.3812 36.7097C23.2066 37.1466 25.1275 37.2266 27.0731 36.8635C30.6375 38.1927 34.5163 36.042 34.9017 32.1374C34.948 31.7804 34.9387 31.3743 34.9295 31.0143C34.9233 30.9835 34.9079 30.9589 34.8832 30.925C34.9511 30.8174 35.1577 30.5404 35.2162 30.4266C36.465 28.0727 36.8597 25.3066 36.5698 22.6727ZM29.6385 35.3281C28.9416 35.3866 28.2109 35.2635 27.5325 34.9897C27.3506 34.9189 27.1471 34.8974 26.9436 34.9497C25.738 35.3066 24.4553 35.4143 23.1757 35.3281C23.0062 35.3158 22.8366 35.3004 22.667 35.2789C22.7071 35.2235 22.7502 35.1681 22.7903 35.1097C27.3999 28.8174 24.6249 19.4574 16.6452 17.8974C15.2084 17.6327 13.8147 17.6574 12.5073 17.922C12.8743 15.9989 13.013 14.0143 13.0716 12.1189C13.0747 11.9097 13.0932 11.6697 13.0963 11.4235C13.0993 11.3774 13.0993 11.3281 13.0993 11.2789C13.3121 11.0512 13.5526 10.8512 13.8208 10.6881C14.2803 10.4051 14.8137 10.2266 15.4026 10.1897C15.6678 10.1651 15.9329 10.1681 16.2012 10.1958C16.6452 10.242 17.0861 10.3558 17.5085 10.5251C17.672 10.5927 17.857 10.6143 18.042 10.5774C18.9084 10.4051 19.7871 10.3343 20.6659 10.3589C21.1623 10.3774 21.6587 10.4235 22.1521 10.4974C23.2837 10.6697 24.3906 10.9989 25.4358 11.4635C32.5152 14.5589 36.6161 23.4327 33.0086 30.5435C32.9931 30.9989 33.0579 31.4758 32.9993 31.9312C32.8544 33.6943 31.436 35.2143 29.6385 35.3281ZM18.8991 35.882C15.9021 38.2358 11.6841 38.8789 8.36023 36.5097C5.51738 34.3897 4.50295 31.242 4.89454 28.2358C5.36938 28.0758 5.83188 27.8697 6.2728 27.6297C6.90797 27.2881 7.50306 26.8758 8.04573 26.4143C8.05498 26.4051 8.06423 26.3989 8.07348 26.3897C8.5514 25.9835 8.98307 25.5435 9.37465 25.082C9.57816 24.842 9.76932 24.5958 9.95124 24.3404C10.1393 24.0758 10.3182 23.805 10.4816 23.5281C10.5001 23.5004 10.5186 23.4758 10.5309 23.4481C10.9379 22.7651 11.2771 22.0481 11.5638 21.3066C11.7365 20.8635 11.8876 20.4081 12.0233 19.9497C12.2545 19.885 12.4888 19.8327 12.7293 19.7866C20.8941 18.3312 25.5962 27.3589 20.9249 33.7651C20.6875 34.0974 20.4316 34.4143 20.1571 34.7158C19.9629 34.9251 19.7625 35.1281 19.5559 35.322C19.3462 35.5158 19.1273 35.7035 18.8991 35.882ZM3.25111 27.3466C2.81636 20.1466 3.1987 15.1897 10.386 12.1712C10.6789 12.0481 10.9842 11.9281 11.2987 11.8112C11.4035 11.7651 11.5145 11.7251 11.6255 11.6881C11.6933 11.6635 11.7612 11.6389 11.829 11.6174L11.8136 12.0758C11.7673 13.3527 11.6933 14.6574 11.5392 15.9466C11.4467 16.7343 11.3202 17.5189 11.1507 18.2881C11.0736 18.6512 10.9842 19.0112 10.8824 19.3651C10.7776 19.7435 10.6604 20.1158 10.5247 20.4851C10.4662 20.6604 10.3983 20.8389 10.3243 21.0112C10.2935 21.0943 10.2596 21.1774 10.2257 21.2604C10.0869 21.5989 9.92966 21.9312 9.75699 22.2604C9.71382 22.3404 9.67066 22.4235 9.62132 22.5035C9.43324 22.8481 9.22049 23.1835 8.99232 23.5066C8.39723 24.3527 7.68189 25.1189 6.87097 25.7435C6.35297 26.1466 5.79488 26.4912 5.20596 26.7589C4.91304 26.8974 4.61087 27.0112 4.29945 27.1066C4.03429 27.1897 3.76295 27.2574 3.48545 27.3066C3.40836 27.322 3.33128 27.3374 3.25111 27.3466ZM24.1624 6.98351C23.7277 7.4789 23.2436 7.92813 22.7163 8.32505C22.4943 8.30044 22.2723 8.27582 22.0472 8.26044C20.6659 8.17121 19.2568 8.27274 17.9186 8.63582H17.9155C17.1046 8.34351 16.2999 8.22659 15.5321 8.26044C16.417 7.63274 17.4222 7.12505 18.3996 6.86044C20.2774 6.32813 22.2877 6.41121 24.1624 6.98351Z" fill="#161E26"/>
</g>
<defs>
<clipPath id="clip0_20791_12158">
<rect width="164.5" height="35" fill="white" transform="translate(1.16675 4.66663)"/>
</clipPath>
</defs>
</svg>
